<?xml version="1.0" encoding="UTF-8"?>
<svg id="Layer_1" data-name="Layer 1" xmlns="http://www.w3.org/2000/svg" viewBox="0 0 800 600">
  <defs>
    <style>
      .cls-1 {
        font-family: Ubuntu-Regular, Ubuntu;
        font-size: 29.65px;
      }

      .cls-1, .cls-2 {
        fill: #fff;
      }

      .cls-3 {
        letter-spacing: .41em;
      }

      .cls-4 {
        letter-spacing: .4em;
      }

      .cls-5 {
        letter-spacing: .35em;
      }
    </style>
  </defs>
  <path class="cls-2" d="M118.44,354.99c-7.28,0-12.54,2.02-15.78,6.06-3.24,4.04-4.86,9.57-4.86,16.58,0,3.41,.4,6.5,1.2,9.27,.8,2.77,2,5.16,3.61,7.16,1.6,2,3.61,3.56,6.01,4.66,2.4,1.1,5.21,1.65,8.42,1.65,1.74,0,3.22-.03,4.46-.1,1.23-.06,2.32-.2,3.26-.4v-24.15h15.63v34.36c-1.87,.74-4.88,1.52-9.02,2.35-4.14,.83-9.25,1.25-15.33,1.25-5.21,0-9.94-.8-14.18-2.4-4.24-1.6-7.86-3.94-10.87-7.01-3.01-3.07-5.33-6.85-6.96-11.32-1.64-4.47-2.45-9.58-2.45-15.33s.9-10.95,2.71-15.43c1.8-4.47,4.27-8.27,7.41-11.37,3.14-3.11,6.83-5.46,11.07-7.06,4.24-1.6,8.77-2.4,13.57-2.4,3.27,0,6.23,.22,8.87,.65,2.64,.44,4.91,.94,6.81,1.5,1.9,.57,3.47,1.15,4.71,1.75,1.23,.6,2.12,1.07,2.65,1.4l-4.51,12.52c-2.14-1.14-4.59-2.12-7.36-2.95-2.77-.83-5.8-1.25-9.07-1.25Z"/>
  <path class="cls-2" d="M175.24,342.17c10.42,0,18.4,1.85,23.94,5.56,5.54,3.71,8.32,9.47,8.32,17.28,0,4.88-1.12,8.83-3.36,11.87-2.24,3.04-5.46,5.43-9.67,7.16,1.4,1.74,2.87,3.72,4.41,5.96,1.54,2.24,3.06,4.58,4.56,7.01,1.5,2.44,2.96,4.98,4.36,7.61,1.4,2.64,2.71,5.23,3.91,7.76h-17.47c-1.27-2.27-2.57-4.57-3.87-6.91-1.31-2.34-2.65-4.61-4.02-6.81-1.37-2.2-2.73-4.29-4.07-6.26-1.34-1.97-2.68-3.76-4.02-5.36h-7.71v25.35h-15.63v-68.43c3.41-.67,6.93-1.14,10.57-1.4,3.64-.27,6.9-.4,9.77-.4Zm.9,13.32c-1.14,0-2.15,.03-3.06,.1s-1.75,.13-2.55,.2v18.83h4.41c5.88,0,10.08-.73,12.62-2.2,2.54-1.47,3.81-3.97,3.81-7.51s-1.29-5.83-3.86-7.26c-2.57-1.44-6.36-2.15-11.37-2.15Z"/>
  <path class="cls-2" d="M221.72,412.39v-69.43h46.89v13.13h-31.26v13.62h27.75v12.82h-27.75v16.73h33.56v13.12h-49.19Z"/>
  <path class="cls-2" d="M282.44,412.39v-69.43h46.89v13.13h-31.26v13.62h27.75v12.82h-27.75v16.73h33.56v13.12h-49.19Z"/>
  <path class="cls-2" d="M389.73,412.39c-4.48-7.95-9.32-15.79-14.53-23.54-5.21-7.75-10.75-15.06-16.63-21.94v45.48h-15.43v-69.43h12.72c2.2,2.21,4.64,4.91,7.31,8.12,2.67,3.21,5.39,6.63,8.16,10.27,2.77,3.64,5.53,7.41,8.27,11.32,2.74,3.91,5.31,7.66,7.71,11.27v-40.98h15.53v69.43h-13.12Z"/>
  <path class="cls-2" d="M450.54,413.8c-11.29,0-19.89-3.14-25.8-9.42-5.91-6.28-8.87-15.19-8.87-26.75,0-5.74,.9-10.87,2.71-15.38,1.8-4.51,4.27-8.32,7.41-11.42,3.14-3.11,6.88-5.46,11.22-7.06,4.34-1.6,9.05-2.4,14.13-2.4,2.94,0,5.61,.22,8.02,.65,2.4,.44,4.51,.94,6.31,1.5,1.8,.57,3.31,1.15,4.51,1.75,1.2,.6,2.07,1.07,2.61,1.4l-4.51,12.62c-2.14-1.14-4.63-2.1-7.46-2.9-2.84-.8-6.06-1.2-9.67-1.2-2.4,0-4.76,.4-7.06,1.2-2.3,.8-4.34,2.09-6.11,3.86-1.77,1.77-3.19,4.06-4.26,6.86-1.07,2.8-1.6,6.21-1.6,10.22,0,3.21,.35,6.2,1.05,8.97,.7,2.77,1.84,5.16,3.41,7.16,1.57,2,3.62,3.59,6.16,4.76,2.54,1.17,5.61,1.75,9.22,1.75,2.27,0,4.31-.13,6.11-.4,1.8-.27,3.41-.58,4.81-.95,1.4-.37,2.64-.78,3.71-1.25,1.07-.47,2.04-.9,2.91-1.3l4.31,12.52c-2.2,1.34-5.31,2.54-9.32,3.61-4.01,1.07-8.65,1.6-13.93,1.6Z"/>
  <path class="cls-2" d="M511.63,371.44c2.81-4.73,5.48-9.46,8.02-14.19,2.54-4.73,4.88-9.49,7.02-14.29h17.23c-3.81,7.48-7.75,14.73-11.82,21.74-4.07,7.01-8.38,14.06-12.92,21.14v26.55h-15.63v-26.35c-4.54-7.08-8.87-14.16-12.97-21.24-4.11-7.08-8.06-14.36-11.87-21.84h18.13c2.13,4.8,4.44,9.56,6.9,14.29,2.47,4.73,5.1,9.46,7.91,14.19Z"/>
  <path class="cls-2" d="M579.58,413.8c-11.29,0-19.89-3.14-25.8-9.42-5.91-6.28-8.87-15.19-8.87-26.75,0-5.74,.9-10.87,2.71-15.38,1.8-4.51,4.27-8.32,7.41-11.42,3.14-3.11,6.88-5.46,11.22-7.06,4.34-1.6,9.05-2.4,14.13-2.4,2.94,0,5.61,.22,8.02,.65,2.4,.44,4.51,.94,6.31,1.5,1.8,.57,3.31,1.15,4.51,1.75,1.2,.6,2.07,1.07,2.61,1.4l-4.51,12.62c-2.14-1.14-4.63-2.1-7.46-2.9-2.84-.8-6.06-1.2-9.67-1.2-2.4,0-4.76,.4-7.06,1.2-2.3,.8-4.34,2.09-6.11,3.86-1.77,1.77-3.19,4.06-4.26,6.86-1.07,2.8-1.6,6.21-1.6,10.22,0,3.21,.35,6.2,1.05,8.97,.7,2.77,1.84,5.16,3.41,7.16,1.57,2,3.62,3.59,6.16,4.76,2.54,1.17,5.61,1.75,9.22,1.75,2.27,0,4.31-.13,6.11-.4,1.8-.27,3.41-.58,4.81-.95,1.4-.37,2.64-.78,3.71-1.25,1.07-.47,2.04-.9,2.91-1.3l4.31,12.52c-2.2,1.34-5.31,2.54-9.32,3.61-4.01,1.07-8.65,1.6-13.93,1.6Z"/>
  <path class="cls-2" d="M659.22,398.97v13.42h-46.39v-69.43h15.63v56h30.76Z"/>
  <path class="cls-2" d="M669.24,412.39v-69.43h46.89v13.13h-31.26v13.62h27.75v12.82h-27.75v16.73h33.56v13.12h-49.19Z"/>
  <text class="cls-1" transform="translate(281.77 461.08)"><tspan class="cls-5" x="0" y="0">L</tspan><tspan class="cls-4" x="25.91" y="0">OGISTI</tspan><tspan class="cls-3" x="188.52" y="0">C</tspan><tspan class="cls-4" x="219.06" y="0">S</tspan></text>
  <g>
    <path class="cls-2" d="M399.48,308.23c-.12,.97-.79,1.7-1.63,1.99-.51,.17-1.09,.17-1.64-.04-28.33-11.13-51.1-36.27-58.47-65.9,2.29,19.92,13.17,39.13,25.19,47.82-18.09,6.46-39.81-15.43-45.32-38.19-5.34-22.04,2.21-46.68,18.82-62.07-1.21,8.86,3.36,18.05,9.04,25.26,6.46,8.18,14.82,14.52,21.18,26.47,6.82,12.82,10.33,28.23,2.33,43.44,0,0,7.38,10.22,29,18.68,1.02,.4,1.64,1.45,1.5,2.54Z"/>
    <path class="cls-2" d="M466.13,276.41c-16.38,15.68-41.48,21.51-63.13,14.87,8.27-3.4,13.93-11.97,17.31-20.5,3.83-9.7,5.12-20.11,12.27-31.61,7.66-12.33,19.24-23.1,36.41-23.81,0,0,5.14-11.52,1.61-34.46-.16-1.09,.43-2.14,1.44-2.57,.9-.38,1.87-.17,2.54,.41,.4,.36,.69,.85,.78,1.44,4.59,30.09-5.73,62.4-27.66,83.65,16.08-11.98,27.24-31.03,28.72-45.78,14.67,12.4,6.63,42.17-10.29,58.37Z"/>
    <path class="cls-2" d="M457.92,183.6c-7.01-5.55-17.25-6.3-26.35-5.08-10.33,1.4-20.04,5.37-33.57,4.75-14.5-.66-29.56-5.49-38.58-20.12,0,0-12.56,1.15-30.84,15.45-.87,.67-2.08,.67-2.95,0-.77-.6-1.07-1.55-.88-2.41,.11-.53,.41-1.02,.87-1.39,24-18.72,57.23-25.52,86.49-16.77-18.31-8.17-40.39-8.59-53.98-2.67,3.64-18.86,33.55-26.41,55.95-19.56,21.69,6.62,39.05,25.67,43.84,47.8Z"/>
  </g>
</svg>