<?xml version="1.0" encoding="UTF-8"?>
<svg id="Layer_1" data-name="Layer 1" xmlns="http://www.w3.org/2000/svg" xmlns:xlink="http://www.w3.org/1999/xlink" viewBox="0 0 84.8 17.78">
  <defs>
    <style>
      .cls-1 {
        fill: url(#linear-gradient-2);
      }

      .cls-2 {
        fill: #fff;
      }

      .cls-3 {
        fill: url(#linear-gradient-6);
      }

      .cls-4 {
        fill: url(#linear-gradient-5);
      }

      .cls-5 {
        fill: url(#linear-gradient-7);
      }

      .cls-6 {
        fill: url(#linear-gradient-3);
      }

      .cls-7 {
        fill: url(#linear-gradient);
      }

      .cls-8 {
        fill: url(#linear-gradient-4);
      }

      .cls-9 {
        fill: url(#linear-gradient-8);
      }
    </style>
    <linearGradient id="linear-gradient" x1="23.93" y1="1.62" x2="23.73" y2="13.18" gradientUnits="userSpaceOnUse">
      <stop offset="0" stop-color="#b6f04a"/>
      <stop offset="1" stop-color="#2ccc5b"/>
    </linearGradient>
    <linearGradient id="linear-gradient-2" x1="31.17" y1="1.74" x2="30.97" y2="13.3" xlink:href="#linear-gradient"/>
    <linearGradient id="linear-gradient-3" x1="37.5" y1="1.85" x2="37.3" y2="13.41" xlink:href="#linear-gradient"/>
    <linearGradient id="linear-gradient-4" x1="43.59" y1="1.96" x2="43.39" y2="13.52" xlink:href="#linear-gradient"/>
    <linearGradient id="linear-gradient-5" x1="50.22" y1="2.07" x2="50.02" y2="13.63" xlink:href="#linear-gradient"/>
    <linearGradient id="linear-gradient-6" x1="5.76" y1="11.42" x2="1.28" y2="14.41" xlink:href="#linear-gradient"/>
    <linearGradient id="linear-gradient-7" x1="11.69" y1="9.89" x2="16.52" y2="12.26" xlink:href="#linear-gradient"/>
    <linearGradient id="linear-gradient-8" x1="7.61" y1="5.41" x2="7.32" y2=".03" xlink:href="#linear-gradient"/>
  </defs>
  <path class="cls-7" d="M24.54,5.92c-.73,0-1.26,.2-1.58,.61-.33,.41-.49,.96-.49,1.67,0,.34,.04,.65,.12,.93,.08,.28,.2,.52,.36,.72,.16,.2,.36,.36,.6,.47,.24,.11,.52,.17,.85,.17,.17,0,.32,0,.45-.01,.12,0,.23-.02,.33-.04v-2.43h1.57v3.45c-.19,.07-.49,.15-.91,.24-.42,.08-.93,.13-1.54,.13-.52,0-1-.08-1.42-.24-.43-.16-.79-.4-1.09-.7-.3-.31-.54-.69-.7-1.14-.16-.45-.25-.96-.25-1.54s.09-1.1,.27-1.55c.18-.45,.43-.83,.74-1.14,.32-.31,.69-.55,1.11-.71,.43-.16,.88-.24,1.36-.24,.33,0,.63,.02,.89,.07,.26,.04,.49,.09,.68,.15,.19,.06,.35,.12,.47,.18,.12,.06,.21,.11,.27,.14l-.45,1.26c-.21-.11-.46-.21-.74-.3-.28-.08-.58-.13-.91-.13Z"/>
  <path class="cls-1" d="M30.25,4.63c1.05,0,1.85,.19,2.4,.56,.56,.37,.84,.95,.84,1.74,0,.49-.11,.89-.34,1.19-.22,.31-.55,.55-.97,.72,.14,.17,.29,.37,.44,.6,.15,.22,.31,.46,.46,.7,.15,.25,.3,.5,.44,.76,.14,.27,.27,.52,.39,.78h-1.75c-.13-.23-.26-.46-.39-.69-.13-.23-.27-.46-.4-.68-.14-.22-.27-.43-.41-.63-.13-.2-.27-.38-.4-.54h-.77v2.55h-1.57V4.81c.34-.07,.7-.11,1.06-.14,.37-.03,.69-.04,.98-.04Zm.09,1.34c-.11,0-.22,0-.31,.01s-.18,.01-.26,.02v1.89h.44c.59,0,1.01-.07,1.27-.22,.25-.15,.38-.4,.38-.75s-.13-.59-.39-.73c-.26-.14-.64-.22-1.14-.22Z"/>
  <path class="cls-6" d="M34.92,11.68V4.71h4.71v1.32h-3.14v1.37h2.79v1.29h-2.79v1.68h3.37v1.32h-4.94Z"/>
  <path class="cls-8" d="M41.01,11.68V4.71h4.71v1.32h-3.14v1.37h2.79v1.29h-2.79v1.68h3.37v1.32h-4.94Z"/>
  <path class="cls-4" d="M51.79,11.68c-.45-.8-.94-1.59-1.46-2.36-.52-.78-1.08-1.51-1.67-2.2v4.57h-1.55V4.71h1.28c.22,.22,.47,.49,.73,.82,.27,.32,.54,.67,.82,1.03,.28,.37,.56,.74,.83,1.14,.28,.39,.53,.77,.77,1.13V4.71h1.56v6.97h-1.32Z"/>
  <path class="cls-2" d="M57.9,11.82c-1.13,0-2-.32-2.59-.95-.59-.63-.89-1.53-.89-2.69,0-.58,.09-1.09,.27-1.54,.18-.45,.43-.84,.74-1.15,.32-.31,.69-.55,1.13-.71,.44-.16,.91-.24,1.42-.24,.3,0,.56,.02,.81,.07,.24,.04,.45,.09,.63,.15,.18,.06,.33,.12,.45,.18,.12,.06,.21,.11,.26,.14l-.45,1.27c-.21-.11-.46-.21-.75-.29-.29-.08-.61-.12-.97-.12-.24,0-.48,.04-.71,.12-.23,.08-.44,.21-.61,.39-.18,.18-.32,.41-.43,.69-.11,.28-.16,.62-.16,1.03,0,.32,.04,.62,.11,.9,.07,.28,.18,.52,.34,.72,.16,.2,.36,.36,.62,.48,.25,.12,.56,.18,.93,.18,.23,0,.43-.01,.61-.04,.18-.03,.34-.06,.48-.1,.14-.04,.27-.08,.37-.13,.11-.05,.2-.09,.29-.13l.43,1.26c-.22,.13-.53,.26-.94,.36-.4,.11-.87,.16-1.4,.16Z"/>
  <path class="cls-2" d="M64.03,7.57c.28-.47,.55-.95,.81-1.42,.26-.47,.49-.95,.71-1.44h1.73c-.38,.75-.78,1.48-1.19,2.18s-.84,1.41-1.3,2.12v2.67h-1.57v-2.65c-.46-.71-.89-1.42-1.3-2.13-.41-.71-.81-1.44-1.19-2.19h1.82c.21,.48,.45,.96,.69,1.44,.25,.47,.51,.95,.79,1.42Z"/>
  <path class="cls-2" d="M70.86,11.82c-1.13,0-2-.32-2.59-.95-.59-.63-.89-1.53-.89-2.69,0-.58,.09-1.09,.27-1.54,.18-.45,.43-.84,.74-1.15,.32-.31,.69-.55,1.13-.71,.44-.16,.91-.24,1.42-.24,.3,0,.56,.02,.81,.07,.24,.04,.45,.09,.63,.15,.18,.06,.33,.12,.45,.18,.12,.06,.21,.11,.26,.14l-.45,1.27c-.21-.11-.46-.21-.75-.29-.29-.08-.61-.12-.97-.12-.24,0-.48,.04-.71,.12-.23,.08-.44,.21-.61,.39-.18,.18-.32,.41-.43,.69-.11,.28-.16,.62-.16,1.03,0,.32,.04,.62,.11,.9,.07,.28,.18,.52,.34,.72,.16,.2,.36,.36,.62,.48,.25,.12,.56,.18,.93,.18,.23,0,.43-.01,.61-.04,.18-.03,.34-.06,.48-.1,.14-.04,.27-.08,.37-.13,.11-.05,.2-.09,.29-.13l.43,1.26c-.22,.13-.53,.26-.94,.36-.4,.11-.87,.16-1.4,.16Z"/>
  <path class="cls-2" d="M78.86,10.33v1.35h-4.66V4.71h1.57v5.63h3.09Z"/>
  <path class="cls-2" d="M79.86,11.68V4.71h4.71v1.32h-3.14v1.37h2.79v1.29h-2.79v1.68h3.37v1.32h-4.94Z"/>
  <g>
    <path class="cls-3" d="M8.39,17.57c-.01,.1-.08,.17-.16,.2-.05,.02-.11,.02-.16,0-2.85-1.12-5.13-3.64-5.87-6.62,.23,2,1.32,3.93,2.53,4.8-1.82,.65-4-1.55-4.55-3.84-.54-2.21,.22-4.69,1.89-6.23-.12,.89,.34,1.81,.91,2.54,.65,.82,1.49,1.46,2.13,2.66,.69,1.29,1.04,2.84,.23,4.36,0,0,.74,1.03,2.91,1.88,.1,.04,.16,.15,.15,.26Z"/>
    <path class="cls-5" d="M15.09,14.37c-1.65,1.57-4.17,2.16-6.34,1.49,.83-.34,1.4-1.2,1.74-2.06,.39-.97,.51-2.02,1.23-3.17,.77-1.24,1.93-2.32,3.66-2.39,0,0,.52-1.16,.16-3.46-.02-.11,.04-.22,.14-.26,.09-.04,.19-.02,.25,.04,.04,.04,.07,.09,.08,.14,.46,3.02-.58,6.27-2.78,8.4,1.61-1.2,2.74-3.12,2.88-4.6,1.47,1.25,.67,4.24-1.03,5.86Z"/>
    <path class="cls-9" d="M14.26,5.05c-.7-.56-1.73-.63-2.65-.51-1.04,.14-2.01,.54-3.37,.48-1.46-.07-2.97-.55-3.87-2.02,0,0-1.26,.12-3.1,1.55-.09,.07-.21,.07-.3,0-.08-.06-.11-.16-.09-.24,.01-.05,.04-.1,.09-.14,2.41-1.88,5.75-2.56,8.69-1.68-1.84-.82-4.06-.86-5.42-.27C4.61,.32,7.61-.44,9.86,.25c2.18,.67,3.92,2.58,4.4,4.8Z"/>
  </g>
</svg>